<svg width="135" height="24" viewBox="0 0 135 24" fill="none" xmlns="http://www.w3.org/2000/svg">
<g id="Group">
<path id="Vector" d="M13.19 10.38L21.93 0.459961H14.35L6.4 9.82996V0.459961H0V23.54H6.4V17.57L8.74 14.96L14.54 23.53H22.22L13.19 10.38Z" fill="white"/>
<path id="Vector_2" d="M33.92 0C26.8 0 21.46 5.37 21.46 12C21.46 18.69 26.73 24 33.85 24C40.97 24 46.31 18.62 46.31 12C46.32 5.31 41.04 0 33.92 0ZM33.92 18.23C30.43 18.23 28.02 15.33 28.02 12C28.02 8.6 30.36 5.77 33.85 5.77C37.38 5.77 39.79 8.67 39.79 12C39.79 15.39 37.45 18.23 33.92 18.23Z" fill="white"/>
<path id="Vector_3" d="M75.56 23.5399H81.96V8.68988H75.56V23.5399ZM49.64 0.459883V6.05988H81.95V0.459883L65.8 0.379883L49.64 0.459883ZM62.6 23.5399H69V8.68988H62.6V23.5399ZM49.64 23.5399H56.04V8.68988H49.64V23.5399Z" fill="white"/>
<path id="Vector_4" d="M97.71 0C90.59 0 85.25 5.37 85.25 12C85.25 18.69 90.52 24 97.64 24C104.76 24 110.1 18.62 110.1 12C110.1 5.31 104.83 0 97.71 0ZM97.71 18.23C94.21 18.23 91.81 15.33 91.81 12C91.81 8.6 94.15 5.77 97.64 5.77C101.17 5.77 103.57 8.67 103.57 12C103.57 15.39 101.23 18.23 97.71 18.23Z" fill="white"/>
<path id="Vector_5" d="M129.49 11.4702C131.53 10.5802 133.05 9.00022 133.05 6.33021C133.05 4.68021 132.49 3.46021 131.57 2.54021C130.22 1.19021 128.18 0.470215 125.27 0.470215H113.43V23.5502H125.33C130.84 23.5502 134.07 21.1402 134.07 17.1902C134.07 13.9802 132.29 12.3902 129.49 11.4702ZM119.66 5.60021H123.81C125.72 5.60021 126.71 6.32022 126.71 7.58021C126.71 8.99022 125.62 9.66021 123.67 9.66021H119.65V5.60021H119.66ZM124.61 18.4002H119.67V14.1502H124.55C126.69 14.1502 127.68 14.9702 127.68 16.2202C127.67 17.6402 126.55 18.4002 124.61 18.4002Z" fill="white"/>
</g>
</svg>
