<svg width="135" height="24" viewBox="0 0 135 24" fill="none" xmlns="http://www.w3.org/2000/svg">
<g id="LOGO">
<g id="Group">
<path id="Vector" d="M13.19 10.38L21.93 0.459991H14.35L6.4 9.82999V0.459991H0V23.54H6.4V17.57L8.74 14.96L14.54 23.53H22.22L13.19 10.38Z" fill="#191919"/>
<path id="Vector_2" d="M33.92 0C26.8 0 21.46 5.37 21.46 12C21.46 18.69 26.73 24 33.85 24C40.97 24 46.31 18.62 46.31 12C46.32 5.31 41.04 0 33.92 0ZM33.92 18.23C30.43 18.23 28.02 15.33 28.02 12C28.02 8.6 30.36 5.77 33.85 5.77C37.38 5.77 39.79 8.67 39.79 12C39.79 15.39 37.45 18.23 33.92 18.23Z" fill="#191919"/>
<path id="Vector_3" d="M75.56 23.54H81.96V8.69H75.56V23.54ZM49.64 0.460005V6.06H81.95V0.460005L65.8 0.380005L49.64 0.460005ZM62.6 23.54H69V8.69H62.6V23.54ZM49.64 23.54H56.04V8.69H49.64V23.54Z" fill="#191919"/>
<path id="Vector_4" d="M97.71 0C90.59 0 85.25 5.37 85.25 12C85.25 18.69 90.52 24 97.64 24C104.76 24 110.1 18.62 110.1 12C110.1 5.31 104.83 0 97.71 0ZM97.71 18.23C94.21 18.23 91.81 15.33 91.81 12C91.81 8.6 94.15 5.77 97.64 5.77C101.17 5.77 103.57 8.67 103.57 12C103.57 15.39 101.23 18.23 97.71 18.23Z" fill="#191919"/>
<path id="Vector_5" d="M129.49 11.47C131.53 10.58 133.05 9 133.05 6.33C133.05 4.68 132.49 3.46 131.57 2.54C130.22 1.19 128.18 0.470001 125.27 0.470001H113.43V23.55H125.33C130.84 23.55 134.07 21.14 134.07 17.19C134.07 13.98 132.29 12.39 129.49 11.47ZM119.66 5.6H123.81C125.72 5.6 126.71 6.32 126.71 7.58C126.71 8.99 125.62 9.66 123.67 9.66H119.65V5.6H119.66ZM124.61 18.4H119.67V14.15H124.55C126.69 14.15 127.68 14.97 127.68 16.22C127.67 17.64 126.55 18.4 124.61 18.4Z" fill="#191919"/>
</g>
</g>
</svg>
